<svg xmlns="http://www.w3.org/2000/svg" viewBox="0 0 435 435"><defs><style>.cls-1{isolation:isolate;}.cls-2{fill:#fff;}.cls-3{mix-blend-mode:multiply;opacity:0.25;}.cls-4{fill:#00e0ea;}.cls-5{fill:#ff7930;}</style></defs><g class="cls-1"><g id="Layer_2" data-name="Layer 2"><rect class="cls-2" x="-0.5" width="435" height="435" rx="46.26"/><path d="M148.33,190.36q-39.42,0-60-19.36T67.67,115.67q0-37.12,21.31-57.29t62.33-20.16a175.05,175.05,0,0,1,24.86,1.6,126.78,126.78,0,0,1,21,4.81V81.52a89.55,89.55,0,0,0-20.86-5.27,174.74,174.74,0,0,0-22-1.37q-21.31,0-32,9.62t-10.65,31.17q0,20.16,9.28,29.1t27.38,8.93a74.1,74.1,0,0,0,11.23-.8,71,71,0,0,0,9.85-2.18V129.18H140.08V102.6h65.3v74.25q-8.48,5.27-22.57,9.39T148.33,190.36Z"/><g class="cls-3"><path d="M164.61,376.77l-5.16-27.24-66,12.5-5.24-27.69,54.53-103.62,36.7-6.95,15.82,83.52,13.06-2.47L214.83,339l-13.06,2.48,5.16,27.24Zm-36.52-54.88,32.65-6.18-7.47-39.4Z"/></g><path class="cls-4" d="M157.07,368.83l-5.16-27.25-66,12.5L80.7,326.39l54.53-103.62,36.7-7,15.82,83.53,13.06-2.48,6.48,34.22-13.06,2.48,5.16,27.24Zm-36.52-54.89,32.65-6.18-7.47-39.4Z"/><path d="M153.23,390.77l-.4-2.15,8.61-1.61.41,2.15Zm-4.81-.21-1.58-8.62,2.15-.4,1.59,8.62Zm22-3-.4-2.15,8.61-1.61.4,2.15Zm17.23-3.22-.4-2.16,8.61-1.61.41,2.16Zm17.23-3.22-.4-2.16,8.61-1.61.4,2.16Zm9.62-8.45L213,364l2.16-.4,1.58,8.62Zm-69.29.66-1.59-8.62,2.16-.4,1.58,8.62Zm-66.47,1.34-.41-2.16L87,370.87l.41,2.15ZM96,371.39l-.41-2.15,8.61-1.63.41,2.15Zm17.22-3.26-.41-2.15,8.61-1.63.41,2.15Zm17.22-3.26-.41-2.15,8.62-1.63.41,2.15Zm80.94-9.45-1-5.53,5.23-1,.41,2.15-3.08.59.62,3.38Zm13.24-6-.41-2.15h0l-1.19-6.42,2.16-.4,1.58,8.57ZM75.56,365.68,74,357.06l2.15-.39,1.58,8.62Zm145.92-33.46-1.59-8.61,2.15-.4,1.6,8.61ZM72.4,348.44l-1.58-8.62,2.15-.39,1.58,8.62ZM218.3,315l-1.6-8.62,2.16-.4,1.59,8.62ZM69.24,331.2l-1.58-8.62,2.16-.39,1.58,8.62ZM73.63,315l-2-1,3.92-7.84,2,1Zm141.48-17.29-1.59-8.62,2.15-.4,1.59,8.62ZM81.48,299.37l-2-1,3.92-7.83,2,1Zm130.44-18.85-.22-1.2-5.26,1-.4-2.15,7.42-1.41.62,3.36Zm-14.51-.7-1.63-8.61,2.15-.41,1.63,8.62ZM89.33,283.69l-2-1,3.92-7.83,2,1ZM194.15,262.6,192.51,254l2.16-.41,1.63,8.61Zm-97,5.42-2-1,3.92-7.83,2,1Zm93.7-22.64-1.63-8.61,2.16-.41L193,245Zm-85.85,7-2-1,3.92-7.84,2,1Zm82.59-24.19L186,219.55l2.15-.41,1.63,8.61Zm-74.74,8.52-2-1,3.92-7.84,2,1ZM120.73,221l-2-1,4-8.05.83-.16.25,1.3.64.32Zm63.63-10.07-1.63-8.61,2.15-.41,1.63,8.61Zm-51.71,1.42-.4-2.15,8.61-1.61.4,2.16Zm17.23-3.21-.4-2.16,8.61-1.61.4,2.16Zm17.23-3.22-.4-2.16,8.61-1.6.4,2.15Z"/><g class="cls-3"><path d="M287.14,225.63a143.87,143.87,0,0,1-15.61-.08q-9.22-.47-18.13-1.76a96.87,96.87,0,0,1-15-3.21l-2.1-34.3a89.73,89.73,0,0,0,21.43,5,120.41,120.41,0,0,0,20.47.7q12.81-.78,18.9-4.37t5.56-12.28q-.78-12.81-20.91-11.57l-24.93,1.52,1-29L278.6,135q10.06-.62,14.21-4.08t3.72-10.56a11.12,11.12,0,0,0-6.22-9.72q-5.82-3.09-18.39-2.32a94.62,94.62,0,0,0-20.22,3.54,77,77,0,0,0-17.25,7l-2.09-34.07a112.72,112.72,0,0,1,20.69-7.12,134.06,134.06,0,0,1,25-4q19.21-1.17,32.81,3.5t21.05,13.86a36.83,36.83,0,0,1,8.21,21.54,45.47,45.47,0,0,1-2.82,19.45,32,32,0,0,1-10.94,14.45q19,6.64,20.42,29.74,1,15.78-6.54,26.34T319,218.85Q305.21,224.52,287.14,225.63Z"/></g><path class="cls-5" d="M279.58,217.7a141.36,141.36,0,0,1-15.61-.08q-9.23-.47-18.13-1.75a95.61,95.61,0,0,1-15-3.22l-2.1-34.3a90.22,90.22,0,0,0,21.43,5,119.3,119.3,0,0,0,20.47.69q12.81-.78,18.9-4.37t5.56-12.28q-.78-12.81-20.91-11.57l-24.93,1.53,1-29L271,127.08q10.06-.61,14.21-4.08T289,112.44a11.12,11.12,0,0,0-6.22-9.72q-5.82-3.09-18.39-2.31a94,94,0,0,0-20.22,3.53,77,77,0,0,0-17.25,7L224.8,76.89a113.48,113.48,0,0,1,20.69-7.12,134.06,134.06,0,0,1,25-4q19.22-1.17,32.81,3.5t21.05,13.86a36.86,36.86,0,0,1,8.21,21.54,45.47,45.47,0,0,1-2.82,19.45,32,32,0,0,1-10.94,14.45q19,6.65,20.42,29.74,1,15.78-6.54,26.34t-21.27,16.23Q297.65,216.58,279.58,217.7Z"/><path d="M291.85,236.19c-2.61.31-5.31.56-8,.75l-.15-2.19c2.68-.18,5.34-.43,7.91-.73l.76-.09.26,2.17Zm9.49-1.45-.41-2.15c2.9-.55,5.75-1.19,8.47-1.91l.56,2.11C307.19,233.53,304.29,234.19,301.34,234.74ZM275,237.23c-2.7,0-5.66,0-8.81-.18l.09-2.19c3.11.13,6,.19,8.72.18Zm43.42-7-.73-2.06c1.5-.54,3-1.1,4.43-1.7,1.28-.52,2.46-1,3.58-1.56l.93,2c-1.15.54-2.37,1.07-3.68,1.61Q320.73,229.37,318.42,230.18Zm-61,6.38c-2.94-.22-5.89-.49-8.77-.8l.24-2.18c2.85.31,5.77.58,8.69.79Zm-17.5-1.92c-3.08-.45-6-.95-8.69-1.5l.43-2.15c2.65.54,5.53,1,8.58,1.48Zm94.47-12.27-1.28-1.77a36.77,36.77,0,0,0,6.25-5.75l1.65,1.44A38.28,38.28,0,0,1,334.38,222.37ZM222.62,231l-1.27-.39-.72-.23-.47-8.2,2.19-.12.38,6.68.51.16ZM346.4,209.24,344.6,208a43.81,43.81,0,0,0,4.2-7.42l2,.87A45,45,0,0,1,346.4,209.24Zm-124.55,4.1-2.19.12-.49-8.75,2.19-.12Zm131.57-20.48-2.15-.41a74.66,74.66,0,0,0,1.05-8.56l2.19.16A76.62,76.62,0,0,1,353.42,192.86Zm-132.56,3-2.19.12-.49-8.75,2.18-.12ZM355,175.24l-2.19-.05a52.76,52.76,0,0,0-.29-7.37c-.05-.39-.1-.79-.16-1.18l2.16-.33c.07.42.12.83.17,1.24A52.83,52.83,0,0,1,355,175.24Zm-76.53,1.63c-1,.12-2,.21-3.11.28l-1.43.07-.11-2.19,1.42-.07a41.64,41.64,0,0,0,7.07-1l.5,2.13A36.14,36.14,0,0,1,278.43,176.87Zm-13.33.75c-2.82,0-5.79,0-8.83-.13l.1-2.19c3,.14,5.92.18,8.69.13Zm-17.62-.75-3.18-.33a35.89,35.89,0,0,1-5.64-1.1l.57-2.11a34.47,34.47,0,0,0,5.31,1l3.14.32Zm40.42-6c-.4-.75-2.52-1.81-7.18-2.34l.25-2.17c4.95.56,7.93,1.73,8.86,3.48Zm-68,7.44-2.19.12-.5-8.75,2.19-.12Zm43.69-8-.28-2.17c2.39-.32,5.16-.67,7.58-1l1.14-.13.25,2.17-1.13.14C268.7,169.65,265.94,170,263.56,170.32Zm-7.73.76-8.76.07,0-2.19,8.77-.07ZM350,158.55a26.18,26.18,0,0,0-4.67-7l1.6-1.5a28.61,28.61,0,0,1,5.06,7.53ZM230.28,172.41q-2.33-1-4.6-2.06l-3.41-1.53.88-2c1.14.5,2.28,1,3.43,1.54,1.51.69,3,1.38,4.56,2Zm9.24-2.38-2.19-.07.27-8.76,2.19.07Zm104.36-25.15-2.05-.79c.33-.86.62-1.84,1-3,.41-1.4.93-3.15,1.68-5.29l2.07.73c-.74,2.08-1.24,3.8-1.65,5.18S344.23,144,343.88,144.88Zm-103.82,7.63-2.19-.07.27-8.76,2.19.07Zm109-24.6-2.16-.32a47.79,47.79,0,0,0,.34-8.55l2.19-.07A48.39,48.39,0,0,1,349,127.91ZM240.6,135l-2.19-.07.27-8.76,2.19.07Zm-23.22-2.49-.45-4.41,2.18-.22.08.82c1.33-.85,2.57-1.6,3.76-2.28l1.09,1.9c-1.59.91-3.27,1.95-5.15,3.19Zm56.26-9.59-8,1-.26-2.17,8.7-1,.26,2.18Zm-16.69,2-8.7,1-.26-2.18,8.71-1Zm21.65-2.69-1.2-1.83c1.45-1,2.49-3.7,2.23-5.89a4.57,4.57,0,0,0-.15-.77l2.09-.65a6.8,6.8,0,0,1,.24,1.16C282.13,116.91,281,120.63,278.6,122.2Zm-46.85,2.12-1-2c2-1,4.45-2.23,7.71-4l1.13,1.88-.12.06h0C236.17,122.09,233.72,123.33,231.75,124.32Zm117.12-14.13-2.19.13,0-.55c-.06-1-.16-2.06-.28-3.12-.19-1.59-.45-3.23-.78-4.87l2.16-.42c.33,1.69.6,3.38.79,5q.19,1.67.3,3.24Zm-101.51,6.5-.74-2a60.52,60.52,0,0,1,8.57-2.41l.45,2.14A60.9,60.9,0,0,0,247.36,116.69Zm-29.14,2.46-2.18.22-.88-8.72,2.18-.22Zm54.61-7c-2.36.1-4.84.35-8.1.74l-.53.06-.27-2.17.54-.07c3.21-.35,5.84-.65,8.28-.75Zm70.59-18.76a58.4,58.4,0,0,0-3.26-8l1.95-1a60.85,60.85,0,0,1,3.39,8.25Zm-127,8.27-2.18.22-.88-8.72,2.18-.22ZM335.51,78.37a64.88,64.88,0,0,0-5.95-6.23l1.49-1.62A67.92,67.92,0,0,1,337.19,77Zm-120.83,5.9-2.18.22-.88-8.72,2.18-.22Zm108.16-17.5a55.22,55.22,0,0,0-7.42-4.32l.95-2a57.93,57.93,0,0,1,7.71,4.5Zm-15.43-7.41a82.53,82.53,0,0,0-8.4-2l.41-2.15a81.05,81.05,0,0,1,8.62,2.1ZM214,68.89l-.91-2c2.5-1.14,5.26-2.26,8.2-3.32l.74,2.06C219.11,66.68,216.41,67.78,214,68.89Zm76.47-12.78c-2.77-.28-5.69-.45-8.66-.52l.05-2.19c3,.07,6,.25,8.83.53Zm-60.17,6.82-.63-2.1c2.51-.75,5.2-1.49,8-2.2l.53-.14.52,2.13-.51.13C235.4,61.45,232.74,62.18,230.26,62.93Zm42.81-7.27c-1.26,0-2.53.11-3.82.19-1.62.1-3.25.22-4.86.37l-.2-2.19c1.64-.14,3.28-.27,4.92-.37,1.31-.08,2.61-.15,3.88-.19Zm-25.91,3.05-.43-2.15c2.88-.57,5.81-1.08,8.7-1.49l.31,2.17C252.89,57.65,250,58.14,247.16,58.71Z"/><path d="M315.3,394.57q-39.42,0-60-19.36t-20.63-55.33q0-37.12,21.31-57.29t62.33-20.16a176.54,176.54,0,0,1,24.86,1.6,126.55,126.55,0,0,1,21,4.81v36.89a89.55,89.55,0,0,0-20.86-5.27,174.74,174.74,0,0,0-22-1.37q-21.31,0-32,9.62t-10.65,31.17q0,20.16,9.28,29.1t27.38,8.93a74.1,74.1,0,0,0,11.23-.8,71,71,0,0,0,9.85-2.18V333.39H307.05V306.82h65.31v74.23q-8.49,5.28-22.57,9.4T315.3,394.57Z"/></g></g></svg>